<?xml version="1.0" encoding="utf-8"?>
<!-- Generator: Adobe Illustrator 23.0.1, SVG Export Plug-In . SVG Version: 6.00 Build 0)  -->
<svg version="1.1" id="Layer_1" xmlns="http://www.w3.org/2000/svg" xmlns:xlink="http://www.w3.org/1999/xlink" x="0px" y="0px"
	 viewBox="0 0 288 288" style="enable-background:new 0 0 288 288;" xml:space="preserve">
<style type="text/css">
	.st0{fill:#EA0029;}
</style>
<g>
	<g>
		<g>
			<path d="M265.96,170.21c-0.32-0.06-0.65-0.09-0.97-0.09c-2.4,0-4.59,1.63-5.2,4.02c-0.29,1.27-0.09,2.65,0.57,3.85
				c0.68,1.2,1.78,2.08,3.08,2.46c1.28,0.39,2.71,0.21,3.9-0.49c1.27-0.74,2.14-1.94,2.46-3.39c0.38-1.47,0.16-2.95-0.63-4.17
				C268.44,171.24,267.29,170.46,265.96,170.21z"/>
			<path d="M234.97,227.39c-1.01-0.86-2.24-1.29-3.47-1.29c-1.39,0-2.77,0.55-3.84,1.62c-1.89,2.05-1.88,5.27,0.03,7.3
				c0.92,0.98,2.19,1.52,3.57,1.52c0,0,0.01,0,0.01,0c1.47,0,2.84-0.61,3.87-1.72c1.06-1.06,1.59-2.44,1.53-3.89
				C236.62,229.55,236,228.26,234.97,227.39L234.97,227.39z"/>
			<path d="M168.82,265.52c0.29,1.25,1.08,2.32,2.21,3c1.26,0.75,2.85,0.96,4.36,0.55c1.46-0.45,2.64-1.44,3.3-2.76
				c0.6-1.2,0.69-2.53,0.25-3.77h0c-0.78-2.2-2.81-3.6-4.98-3.6c-0.49,0-0.99,0.07-1.48,0.22
				C169.8,259.88,168.17,262.73,168.82,265.52z"/>
			<path d="M112.84,264.96c0.51-2.76-1.22-5.47-3.93-6.17c-0.38-0.09-0.76-0.13-1.15-0.13c-0.92,0-1.85,0.24-2.7,0.7
				c-1.2,0.68-2.08,1.77-2.46,3.08c-0.39,1.29-0.21,2.71,0.49,3.9c0.74,1.27,1.94,2.14,3.39,2.46c1.47,0.38,2.94,0.16,4.17-0.63
				C111.82,267.44,112.6,266.29,112.84,264.96z"/>
			<path d="M50.43,225.26c-1.32,0-2.64,0.48-3.66,1.44c-0.98,0.92-1.52,2.2-1.52,3.59c0,1.47,0.61,2.84,1.72,3.87
				c1.06,1.06,2.45,1.59,3.89,1.53c1.39-0.06,2.68-0.68,3.55-1.7c1.83-2.16,1.69-5.3-0.34-7.31
				C53.04,225.73,51.73,225.26,50.43,225.26z"/>
			<path d="M13.62,172.55c-0.73,1.28-0.91,2.87-0.48,4.37c0.48,1.45,1.48,2.62,2.82,3.25c1.21,0.58,2.55,0.64,3.77,0.18l0,0
				c2.69-1.01,4.12-3.87,3.26-6.52c-0.65-2.27-2.83-3.75-5.18-3.71c-0.41,0.01-0.83,0.06-1.24,0.16
				C15.33,170.6,14.28,171.41,13.62,172.55z"/>
			<path d="M19.37,104.02c-1.29-0.37-2.71-0.17-3.89,0.56c-1.25,0.76-2.11,1.98-2.4,3.43c-0.35,1.48-0.1,2.95,0.7,4.16
				c0.77,1.16,1.93,1.92,3.26,2.14c2.77,0.46,5.45-1.31,6.1-4.03c0.27-1.28,0.04-2.65-0.64-3.84
				C21.79,105.24,20.68,104.38,19.37,104.02z"/>
			<path d="M55.09,45.76c-0.92-0.98-2.19-1.52-3.57-1.52c0,0-0.01,0-0.02,0c-1.47,0-2.84,0.61-3.86,1.72
				c-1.06,1.06-1.59,2.44-1.53,3.89c0.06,1.39,0.68,2.68,1.7,3.55c2.16,1.83,5.3,1.69,7.31-0.34C57.01,51.01,57,47.8,55.09,45.76z"
				/>
			<path d="M103.84,18.25c0.96,2.7,3.8,4.19,6.47,3.38c2.68-0.72,4.31-3.57,3.65-6.35c-0.29-1.25-1.08-2.32-2.21-3
				c-0.84-0.5-1.81-0.76-2.82-0.76c-0.51,0-1.03,0.07-1.54,0.2c-1.46,0.45-2.64,1.44-3.3,2.76
				C103.49,15.68,103.4,17.02,103.84,18.25L103.84,18.25z"/>
			<path d="M176.31,11.98c-1.48-0.38-2.94-0.15-4.17,0.63c-1.17,0.75-1.95,1.89-2.2,3.23c-0.51,2.76,1.22,5.47,3.93,6.17
				c1.27,0.29,2.65,0.09,3.85-0.57c1.2-0.68,2.08-1.77,2.46-3.08c0.39-1.28,0.21-2.7-0.49-3.9
				C178.97,13.18,177.76,12.3,176.31,11.98z"/>
			<path d="M228.39,46.82c-1.83,2.16-1.69,5.3,0.34,7.31c2.05,1.89,5.27,1.88,7.3-0.03c0.98-0.92,1.52-2.2,1.52-3.59
				c0-1.47-0.61-2.84-1.72-3.87c-1.01-1-2.29-1.54-3.66-1.54c-0.07,0-0.15,0-0.23,0C230.55,45.17,229.26,45.79,228.39,46.82
				L228.39,46.82z"/>
			<path d="M267.3,104.36c-0.69-0.35-1.44-0.52-2.18-0.52c-0.54,0-1.07,0.09-1.59,0.27v0c-2.7,0.96-4.19,3.8-3.38,6.47
				c0.72,2.68,3.58,4.3,6.35,3.66c1.25-0.29,2.32-1.08,3-2.22c0.76-1.26,0.96-2.85,0.55-4.36
				C269.61,106.2,268.63,105.02,267.3,104.36z"/>
		</g>
		<g>
			<g>
				<path d="M63.44,166.67c0-12.28,7.04-20.78,18.08-20.78c8.39,0,15.26,4.96,16.5,12.84h-5.35c-1.24-5.29-5.41-8.17-10.93-8.17
					c-8.11,0-12.95,6.08-12.95,16.11c0,10.03,4.79,16.33,12.95,16.33c6.31,0,10.64-3.66,11.6-10.87h5.18
					c-1.35,9.63-7.55,15.55-16.95,15.55C70.31,187.68,63.44,178.84,63.44,166.67z"/>
				<path d="M101.57,149.32c0-1.97,1.41-3.32,3.44-3.32c1.97,0,3.38,1.35,3.38,3.32c0,1.97-1.41,3.38-3.38,3.38
					C102.98,152.7,101.57,151.29,101.57,149.32z"/>
				<rect x="102.42" y="157.66" width="5.18" height="29.06"/>
				<path d="M128.49,156.93V162c-0.62-0.06-1.18-0.06-1.86-0.06c-3.83,0-8.11,2.99-8.34,8.9v15.88h-5.18v-29.06h4.84v5.86
					c1.86-4.06,4.9-6.65,9.46-6.65C127.82,156.87,128.15,156.87,128.49,156.93z"/>
				<path d="M128.4,172.42c0-9.8,5.35-15.49,13.74-15.49c6.7,0,11.27,3.55,12.28,10.25h-4.9c-0.79-3.94-3.27-5.91-7.32-5.91
					c-5.86,0-8.62,4.06-8.62,10.93c0,6.87,3.04,10.93,8.56,10.93c4.28,0,6.65-2.42,7.43-6.53h4.84
					c-1.01,6.82-5.24,10.87-12.56,10.87C133.75,187.45,128.4,182.22,128.4,172.42z"/>
				<path d="M157.91,146.62h5.18v40.1h-5.18V146.62z"/>
				<path d="M193.72,173.43h-21.8c0.17,6.53,3.55,9.74,8.79,9.74c4.28,0,6.76-2.14,8.05-5.8l4.73,0.56
					c-1.8,6.03-6.59,9.46-12.95,9.46c-8.67,0-13.8-6.36-13.8-15.32c0-8.9,5.01-15.09,13.69-15.09c8.17,0,13.29,5.46,13.29,14.53
					V173.43z M171.98,169.71h16.9c-0.68-5.52-3.66-8.51-8.39-8.51C175.87,161.21,172.49,164.02,171.98,169.71z"/>
				<path d="M195.52,177.54h4.96c0.51,4.06,2.93,5.75,7.38,5.75c4.73,0,6.93-1.8,6.93-4.56c0-2.31-1.52-3.6-4.56-4.22l-5.86-1.24
					c-5.63-1.18-8.05-3.77-8.05-7.89c0-5.07,3.66-8.39,10.81-8.39c6.59,0,11.1,2.87,11.83,9.13h-5.13
					c-0.56-3.38-2.76-5.01-6.87-5.01c-3.66,0-5.86,1.24-5.86,3.83c0,1.86,1.07,3.15,4.51,3.89l5.63,1.24c6.03,1.35,8.5,4,8.5,8.22
					c0,5.69-4.45,9.18-12.11,9.18C200.31,187.45,196.2,184.19,195.52,177.54z"/>
			</g>
			<g>
				<g>
					<path class="st0" d="M98.3,106.72H86.98l0-10.36h35.09l0,10.36h-11.32l0,30.05H98.3L98.3,106.72z"/>
				</g>
				<g>
					<path class="st0" d="M123.95,96.36h34.07l0,10.34l-21.62,0.02l0,4.96h21.62l0,9.65l-21.62-0.02l0,5.1h21.62l0,10.36h-34.07
						L123.95,96.36z"/>
				</g>
				<g>
					<path class="st0" d="M160.09,96.36h20.43c13.47,0,18.22,9.96,18.22,20.15c0,12.39-6.56,20.26-20.66,20.26h-18L160.09,96.36z
						 M172.54,126.41h4.87c7.75,0,8.88-6.28,8.88-10.07c0-2.55-0.79-9.62-9.79-9.62h-3.96L172.54,126.41z"/>
				</g>
			</g>
		</g>
	</g>
</g>
</svg>
